<svg width="27" height="26" viewBox="0 0 27 26" fill="none" xmlns="http://www.w3.org/2000/svg">
<path d="M11.2621 23.6307C11.2621 24.2488 10.7611 24.7498 10.1431 24.7498C9.52505 24.7498 9.02405 24.2488 9.02405 23.6307C9.02405 23.0127 9.52505 22.5117 10.1431 22.5117C10.7611 22.5117 11.2621 23.0127 11.2621 23.6307Z" stroke="#31C48D" stroke-width="2" stroke-linecap="round" stroke-linejoin="round"/>
<path d="M23.5713 23.6307C23.5713 24.2488 23.0703 24.7498 22.4523 24.7498C21.8343 24.7498 21.3333 24.2488 21.3333 23.6307C21.3333 23.0127 21.8343 22.5117 22.4523 22.5117C23.0703 22.5117 23.5713 23.0127 23.5713 23.6307Z" stroke="#31C48D" stroke-width="2" stroke-linecap="round" stroke-linejoin="round"/>
<path d="M1.19092 1.25049H5.667L8.66597 16.2342C8.87717 17.2975 9.82011 18.0566 10.904 18.0358H21.7809C22.8648 18.0566 23.8077 17.2975 24.0189 16.2342L25.8093 6.84559H6.78602" stroke="#31C48D" stroke-width="2" stroke-linecap="round" stroke-linejoin="round"/>
</svg>
