<svg width="25" height="24" viewBox="0 0 25 24" fill="none" xmlns="http://www.w3.org/2000/svg">
<g clip-path="url(#clip0_546_3862)">
<path d="M16.1714 4.25C16.1714 5.49 15.1614 6.5 13.9214 6.5H10.4214C9.80139 6.5 9.24139 6.25 8.83139 5.84C8.42139 5.43 8.17139 4.87 8.17139 4.25C8.17139 3.01 9.18139 2 10.4214 2H13.9214C14.5414 2 15.1014 2.25 15.5114 2.66C15.9214 3.07 16.1714 3.63 16.1714 4.25Z" fill="#F25510"/>
<path d="M20.1714 8.24996V18C20.1714 21 18.3814 22 16.1714 22H8.17139C5.96139 22 4.17139 21 4.17139 18V8.24996C4.17139 6.11996 4.94139 5.05996 6.10139 4.58996C6.39139 4.46996 6.69139 4.70996 6.75139 5.00996C6.89139 5.71996 7.25139 6.37996 7.77139 6.89996C8.48139 7.60996 9.42139 7.99996 10.4214 7.99996H13.9214C15.7414 7.99996 17.2514 6.70996 17.5914 4.99996C17.6514 4.69996 17.9414 4.46996 18.2314 4.57996C18.5114 4.68996 18.7714 4.83996 19.0014 5.02996C19.7214 5.61996 20.1714 6.61996 20.1714 8.24996ZM7.42139 13C7.42139 13.41 7.76139 13.75 8.17139 13.75H12.1714C12.5814 13.75 12.9214 13.41 12.9214 13C12.9214 12.59 12.5814 12.25 12.1714 12.25H8.17139C7.76139 12.25 7.42139 12.59 7.42139 13ZM16.9214 17C16.9214 16.59 16.5814 16.25 16.1714 16.25H8.17139C7.76139 16.25 7.42139 16.59 7.42139 17C7.42139 17.41 7.76139 17.75 8.17139 17.75H16.1714C16.5814 17.75 16.9214 17.41 16.9214 17Z" fill="#F25510"/>
</g>
<defs>
<clipPath id="clip0_546_3862">
<rect width="24" height="24" fill="white" transform="translate(0.171387)"/>
</clipPath>
</defs>
</svg>
