<svg width="25" height="24" viewBox="0 0 25 24" fill="none" xmlns="http://www.w3.org/2000/svg">
<path d="M22.1714 8.14006C22.1714 9.82006 21.5314 10.4201 20.6914 10.6201C20.4114 10.6801 20.1214 10.7001 19.8114 10.7001H4.53139C4.23139 10.7001 3.92139 10.6901 3.63139 10.6201C3.32139 10.5501 3.03139 10.4201 2.79139 10.1701C2.37139 9.75006 2.17139 9.11006 2.17139 8.14006C2.17139 5.58006 4.04139 5.58006 4.94139 5.58006H5.34139L8.71139 2.20006C8.99139 1.93006 9.43139 1.93006 9.70139 2.20006C9.97139 2.48006 9.97139 2.92006 9.70139 3.19006L7.31139 5.58006H17.0314L14.6414 3.19006C14.3714 2.91006 14.3714 2.47006 14.6414 2.20006C14.9214 1.93006 15.3614 1.93006 15.6314 2.20006L19.0114 5.58006H19.4114C20.3014 5.58006 22.1714 5.58006 22.1714 8.14006Z" fill="#F25510"/>
<path d="M20.2014 13.19L19.1914 18.42C18.8314 20.31 18.2314 22 14.8614 22H9.25142C5.92142 22 5.17142 20.02 4.89142 18.3L4.05142 13.16C3.95142 12.55 4.42142 12 5.04142 12H19.2214C19.8514 12 20.3214 12.57 20.2014 13.19ZM10.7814 15.15C10.7814 14.77 10.4714 14.45 10.0914 14.45C9.70142 14.45 9.39142 14.77 9.39142 15.15V18.45C9.39142 18.84 9.70142 19.15 10.0914 19.15C10.4714 19.15 10.7814 18.84 10.7814 18.45V15.15ZM15.0614 15.15C15.0614 14.77 14.7514 14.45 14.3614 14.45C13.9814 14.45 13.6614 14.77 13.6614 15.15V18.45C13.6614 18.84 13.9814 19.15 14.3614 19.15C14.7514 19.15 15.0614 18.84 15.0614 18.45V15.15Z" fill="#F25510"/>
</svg>
