<svg width="25" height="24" viewBox="0 0 25 24" fill="none" xmlns="http://www.w3.org/2000/svg">
<g clip-path="url(#clip0_546_3869)">
<path d="M22.1614 7.81V16.19C22.1614 19.83 19.9914 22 16.3514 22H7.98139C4.34139 22 2.17139 19.83 2.17139 16.18V7.81C2.17139 4.17 4.34139 2 7.98139 2H16.3614C20.0014 2 22.1714 4.17 22.1614 7.81ZM6.16139 12.65H6.17139C6.58139 12.65 6.92139 12.32 6.93139 11.92C6.95139 10.55 7.49139 9.26 8.46139 8.29C9.45139 7.3 10.7714 6.75 12.1714 6.75C13.5714 6.75 14.8914 7.3 15.8814 8.29C15.9114 8.32 15.9314 8.35 15.9614 8.38H15.1314C14.7214 8.38 14.3814 8.72 14.3814 9.13C14.3814 9.54 14.7214 9.88 15.1314 9.88H17.7814C18.1914 9.88 18.5314 9.54 18.5314 9.13V6.48C18.5314 6.07 18.1914 5.73 17.7814 5.73C17.3714 5.73 17.0314 6.07 17.0314 6.48V7.34C17.0014 7.3 16.9714 7.26 16.9414 7.23C15.6714 5.95 13.9714 5.25 12.1714 5.25C10.3714 5.25 8.67139 5.95 7.39139 7.23C6.15139 8.47 5.45139 10.13 5.42139 11.89C5.42139 12.3 5.75139 12.65 6.16139 12.65ZM18.9114 12.01C18.9114 11.6 18.5714 11.26 18.1614 11.26C17.7514 11.26 17.4114 11.6 17.4114 12.01C17.4114 13.41 16.8614 14.72 15.8814 15.7C14.8914 16.69 13.5714 17.24 12.1714 17.24C10.7714 17.24 9.45139 16.69 8.46139 15.7C8.43139 15.67 8.41139 15.64 8.38139 15.61H9.21139C9.62139 15.61 9.96139 15.27 9.96139 14.86C9.96139 14.45 9.62139 14.11 9.21139 14.11H6.56139C6.15139 14.11 5.81139 14.45 5.81139 14.86V17.51C5.81139 17.92 6.15139 18.26 6.56139 18.26C6.97139 18.26 7.31139 17.92 7.31139 17.51V16.66C7.34139 16.7 7.37139 16.74 7.40139 16.77C8.67139 18.05 10.3714 18.75 12.1714 18.75C13.9714 18.75 15.6714 18.04 16.9414 16.77C18.2114 15.51 18.9114 13.82 18.9114 12.01Z" fill="#F25510"/>
</g>
<defs>
<clipPath id="clip0_546_3869">
<rect width="24" height="24" fill="white" transform="translate(0.171387)"/>
</clipPath>
</defs>
</svg>
