<svg width="25" height="24" viewBox="0 0 25 24" fill="none" xmlns="http://www.w3.org/2000/svg">
<path d="M18.3555 11C18.8555 11 19.3555 11.07 19.8555 11.18V7H3.85547V20H12.3555C12.0355 19.23 11.8555 18.39 11.8555 17.5C11.8555 13.91 14.7655 11 18.3555 11ZM8.85547 12V10.5C8.85547 10.22 9.07547 10 9.35547 10H14.3555C14.6355 10 14.8555 10.22 14.8555 10.5V12H8.85547ZM20.8555 6H2.85547V2H20.8555V6ZM18.3555 13C15.8555 13 13.8555 15 13.8555 17.5C13.8555 20 15.8555 22 18.3555 22C20.8555 22 22.8555 20 22.8555 17.5C22.8555 15 20.8555 13 18.3555 13ZM18.3555 20.5C16.6955 20.5 15.3555 19.16 15.3555 17.5C15.3555 16.94 15.5055 16.42 15.7755 16L19.8555 20.08C19.4355 20.35 18.9155 20.5 18.3555 20.5ZM20.9355 19L16.8555 14.92C17.2755 14.65 17.7955 14.5 18.3555 14.5C20.0155 14.5 21.3555 15.84 21.3555 17.5C21.3555 18.06 21.2055 18.58 20.9355 19Z" fill="#F25510"/>
</svg>
