<svg width="25" height="24" viewBox="0 0 25 24" fill="none" xmlns="http://www.w3.org/2000/svg">
<g clip-path="url(#clip0_546_6005)">
<path d="M15.492 3.95005V7.75005H13.992V3.95005C13.992 3.68005 13.752 3.55005 13.592 3.55005C13.542 3.55005 13.492 3.56005 13.442 3.58005L5.51203 6.57005C4.98203 6.77005 4.64203 7.27005 4.64203 7.84005V8.51005C3.73203 9.19005 3.14203 10.28 3.14203 11.51V7.84005C3.14203 6.65005 3.87203 5.59005 4.98203 5.17005L12.922 2.17005C13.142 2.09005 13.372 2.05005 13.592 2.05005C14.592 2.05005 15.492 2.86005 15.492 3.95005Z" fill="#F25510"/>
<path d="M22.142 14.5V15.5C22.142 15.77 21.932 15.99 21.652 16H20.192C19.662 16 19.182 15.61 19.142 15.09C19.112 14.78 19.232 14.49 19.432 14.29C19.612 14.1 19.862 14 20.132 14H21.642C21.932 14.01 22.142 14.23 22.142 14.5Z" fill="#F25510"/>
<path d="M20.122 12.95H21.142C21.692 12.95 22.142 12.5 22.142 11.95V11.51C22.142 9.44 20.452 7.75 18.382 7.75H6.90203C6.05203 7.75 5.27203 8.03 4.64203 8.51C3.73203 9.19 3.14203 10.28 3.14203 11.51V18.24C3.14203 20.31 4.83203 22 6.90203 22H18.382C20.452 22 22.142 20.31 22.142 18.24V18.05C22.142 17.5 21.692 17.05 21.142 17.05H20.272C19.312 17.05 18.392 16.46 18.142 15.53C17.932 14.77 18.182 14.04 18.682 13.55C19.052 13.17 19.562 12.95 20.122 12.95ZM14.642 12.75H7.64203C7.23203 12.75 6.89203 12.41 6.89203 12C6.89203 11.59 7.23203 11.25 7.64203 11.25H14.642C15.052 11.25 15.392 11.59 15.392 12C15.392 12.41 15.052 12.75 14.642 12.75Z" fill="#F25510"/>
</g>
<defs>
<clipPath id="clip0_546_6005">
<rect width="24" height="24" fill="white" transform="translate(0.642029)"/>
</clipPath>
</defs>
</svg>
