<svg width="25" height="24" viewBox="0 0 25 24" fill="none" xmlns="http://www.w3.org/2000/svg">
<g clip-path="url(#clip0_546_6006)">
<path d="M17.1343 2H8.75434C5.11434 2 2.94434 4.17 2.94434 7.81V16.18C2.94434 19.83 5.11434 22 8.75434 22H17.1243C20.7643 22 22.9343 19.83 22.9343 16.19V7.81C22.9443 4.17 20.7743 2 17.1343 2ZM18.2043 9.96L15.8943 12.94C15.6043 13.31 15.1943 13.55 14.7243 13.6C14.2543 13.66 13.7943 13.53 13.4243 13.24L11.5943 11.8C11.5243 11.74 11.4443 11.74 11.4043 11.75C11.3643 11.75 11.2943 11.77 11.2343 11.85L8.85434 14.94C8.70434 15.13 8.48434 15.23 8.26434 15.23C8.10434 15.23 7.94434 15.18 7.80434 15.07C7.47434 14.82 7.41434 14.35 7.66434 14.02L10.0443 10.93C10.3343 10.56 10.7443 10.32 11.2143 10.26C11.6743 10.2 12.1443 10.33 12.5143 10.62L14.3443 12.06C14.4143 12.12 14.4843 12.12 14.5343 12.11C14.5743 12.11 14.6443 12.09 14.7043 12.01L17.0143 9.03C17.2643 8.7 17.7443 8.64 18.0643 8.9C18.3943 9.17 18.4543 9.64 18.2043 9.96Z" fill="#F25510"/>
</g>
<defs>
<clipPath id="clip0_546_6006">
<rect width="24" height="24" fill="white" transform="translate(0.944336)"/>
</clipPath>
</defs>
</svg>
